<svg width="32" height="32" viewBox="0 0 32 32" fill="none" xmlns="http://www.w3.org/2000/svg">
  <rect width="32" height="32" rx="4" fill="#5E3A1E"/>
  <!-- Coffee Cup -->
  <path d="M9 10H19V20C19 21.6569 17.6569 23 16 23H12C10.3431 23 9 21.6569 9 20V10Z" fill="#FBF7E9"/>
  <!-- Steam -->
  <path d="M11 8C11 8 12 6 14 7C16 8 14 9 14 9" stroke="#FBF7E9" stroke-width="1.5" stroke-linecap="round"/>
  <path d="M15 7C15 7 16 5 18 6C20 7 18 8 18 8" stroke="#FBF7E9" stroke-width="1.5" stroke-linecap="round"/>
  <!-- Handle -->
  <path d="M19 12H21C22.1046 12 23 12.8954 23 14V16C23 17.1046 22.1046 18 21 18H19" stroke="#FBF7E9" stroke-width="2" stroke-linecap="round"/>
  <!-- Saucer -->
  <path d="M7 24H21" stroke="#FBF7E9" stroke-width="2" stroke-linecap="round"/>
</svg> 